<?xml version="1.0" encoding="UTF-8" standalone="no"?>
<svg width="165px" height="74px" viewBox="0 0 165 74" version="1.1" xmlns="http://www.w3.org/2000/svg" xmlns:xlink="http://www.w3.org/1999/xlink">
    <!-- Generator: Sketch 3.7 (28169) - http://www.bohemiancoding.com/sketch -->
    <title>Logo</title>
    <desc>Created with Sketch.</desc>
    <defs></defs>
    <g id="Page-1" stroke="none" stroke-width="1" fill="none" fill-rule="evenodd">
        <g id="Desktop-HD-Copy" transform="translate(-125.000000, -96.000000)" fill="#FFFFFF">
            <path d="M192.158987,128.832605 L191.779857,128.832605 L191.779857,128.071618 C191.779857,126.156874 194.440586,124.002106 199.764773,121.607313 L200.52576,121.607313 C197.454534,126.424175 194.665609,128.832605 192.158987,128.832605 L192.158987,128.832605 Z M260.56813,135.543257 L261.329118,135.543257 L261.329118,135.164127 L260.56813,135.164127 L260.56813,135.543257 Z M259.09786,152.756992 C259.09786,152.278306 259.351522,151.64415 259.857484,150.855886 C259.857484,150.602224 259.730652,150.22173 259.478354,149.715769 C259.730652,149.715769 259.857484,149.081612 259.857484,147.813299 L260.239341,147.813299 L260.998965,148.195157 C260.998965,147.687832 260.746666,146.926844 260.239341,145.912194 C260.49164,143.376932 260.872134,142.109983 261.379459,142.109983 C261.379459,141.518104 261.252628,141.010778 260.998965,140.589371 C261.477651,139.828384 261.858145,137.925914 262.139083,134.884691 C261.886784,134.884691 261.759953,134.75786 261.759953,134.504197 L261.759953,134.123703 C262.237275,133.364079 262.871431,131.209311 263.661058,127.659399 L263.280565,126.898412 C264.182021,121.321926 264.943009,118.533002 265.562164,118.533002 C265.562164,115.913186 264.928007,113.758418 263.661058,112.067334 L259.857484,112.067334 C258.561895,113.842972 257.293582,114.730791 256.055273,114.730791 L256.435767,115.490415 L256.055273,116.251403 L256.435767,116.251403 C254.913791,125.124137 253.773673,129.940999 253.014049,130.701986 L253.393179,130.701986 C253.393179,130.955649 253.266348,131.08248 253.014049,131.08248 C253.014049,131.334779 253.139517,131.716637 253.393179,132.222598 C252.210785,137.800447 251.322966,140.589371 250.73245,140.589371 C251.238411,141.631297 251.492074,142.392285 251.492074,142.869607 L251.11158,143.630595 C245.758754,147.687832 242.463869,149.715769 241.224195,149.715769 L241.604689,147.432806 L240.845065,146.292688 L241.604689,146.292688 C243.267133,140.743478 244.407251,137.955917 245.02777,137.925914 C245.02777,137.673616 244.899575,137.546784 244.647276,137.546784 C245.661926,134.504197 246.422914,132.982222 246.928875,132.982222 C247.267092,130.306491 247.774417,128.659048 248.449487,128.038529 C249.971462,125.871487 250.73245,124.349512 250.73245,123.476694 C250.73245,120.941432 248.829981,119.292626 245.02777,118.533002 C245.02777,118.786664 244.899575,118.913496 244.647276,118.913496 L244.268146,118.913496 L243.507158,118.533002 C242.88664,120.053614 241.491495,120.814601 239.324453,120.814601 C239.324453,121.068264 239.449921,121.195095 239.703583,121.195095 C239.167619,123.758996 238.027501,126.927051 236.280503,130.701986 L236.660996,131.46161 C236.153671,131.46161 235.140385,134.250535 233.619773,139.828384 C233.521581,140.041133 233.437027,140.301614 233.34429,140.533456 L232.985617,139.997492 C231.549559,137.827722 229.394791,136.433942 226.521313,135.814787 L225.760325,136.195281 C225.760325,135.940255 224.620207,135.687956 222.338608,135.43293 C222.338608,135.687956 221.705815,135.940255 220.437502,136.195281 C220.437502,135.715231 219.803346,135.336101 218.535033,135.053799 C218.535033,135.306098 218.409566,135.43293 218.155903,135.43293 L217.775409,135.43293 L217.014421,135.053799 L217.014421,134.673306 L217.775409,135.053799 L218.155903,135.053799 C218.155903,134.040513 218.916891,133.15133 220.437502,132.391706 C220.437502,132.645369 220.564334,132.7722 220.816632,132.7722 C220.816632,132.264875 220.943464,132.011212 221.19849,132.011212 C221.958114,131.532527 222.338608,131.026565 222.338608,130.490601 L224.620207,130.490601 L226.142183,129.349119 C226.142183,129.09682 226.015351,128.968625 225.760325,128.968625 L225.760325,128.589495 L226.521313,128.968625 L226.901806,128.968625 C227.407768,128.968625 227.662794,128.589495 227.662794,127.828508 C228.901104,127.06752 229.662092,126.687026 229.944394,126.687026 L229.944394,126.307896 L229.562536,125.546908 L229.944394,125.546908 C229.944394,122.955731 227.789625,121.181457 223.478726,120.222722 L221.958114,120.98371 L221.19849,120.603216 C220.691165,120.884154 220.437502,121.266011 220.437502,121.743334 C220.182476,121.743334 220.057008,121.616502 220.057008,121.364203 L219.676515,121.364203 C214.690545,124.405427 211.267464,127.701676 209.408636,131.251588 L209.78913,132.011212 C209.536831,132.011212 209.408636,132.138044 209.408636,132.391706 L209.408636,133.15133 C209.408636,133.406357 209.536831,133.533188 209.78913,133.533188 C211.197911,139.363336 213.099017,142.279091 215.49381,142.279091 L216.254798,141.897234 C216.254798,142.405923 216.88759,142.658221 218.155903,142.658221 L218.916891,142.279091 L218.916891,142.658221 C219.507406,142.180899 220.775719,141.800405 222.719102,141.518104 C222.719102,141.771766 222.845933,141.897234 223.098232,141.897234 L223.098232,142.279091 C223.098232,144.053365 220.816632,146.840926 216.254798,150.645865 C213.21221,152.616523 211.691599,153.756641 211.691599,154.066218 C211.436572,154.066218 211.311105,153.940751 211.311105,153.687088 C209.845044,154.603546 208.134868,155.35226 206.203759,155.952322 L205.733256,154.066218 L206.112386,153.306594 C205.155014,151.277294 203.75987,145.575341 201.929681,136.195281 C202.183344,136.195281 202.310175,136.067086 202.310175,135.814787 L202.310175,135.43293 L201.929681,134.673306 C205.985555,130.2233 208.267154,126.292894 208.774479,122.884815 L208.393985,121.364203 L209.154973,120.98371 C209.154973,119.209435 207.50753,117.941123 204.212644,117.180135 L203.451657,117.561992 C203.000246,117.561992 202.746584,117.306966 202.689305,116.801005 C198.943009,117.251051 195.521292,118.13887 192.42279,119.461734 L192.04366,119.461734 L192.42279,117.561992 C192.42279,115.81363 191.282672,114.800344 188.999709,114.518042 C188.549663,114.773068 187.915506,114.899899 187.099968,114.899899 C186.337616,115.10583 185.453888,115.843633 184.450148,117.1024 C183.966007,116.907379 183.334579,116.749181 182.536769,116.631896 C182.000804,116.631896 181.493479,116.758728 181.016157,117.011026 C180.564747,116.758728 179.423265,116.503701 177.593076,116.251403 L176.072465,117.011026 L176.072465,116.631896 L170.367784,118.533002 L169.608161,118.152508 C169.608161,118.771663 168.718978,119.280352 166.944704,119.674483 C164.972682,118.406171 163.325239,117.772014 162.001011,117.772014 C160.987725,117.885208 160.480399,118.265702 160.480399,118.913496 C159.268001,119.44946 158.635209,120.082253 158.579294,120.814601 C158.832957,120.814601 158.959788,120.941432 158.959788,121.195095 C158.254715,122.208382 157.620559,124.36315 157.057319,127.659399 L157.439176,128.420387 L156.678188,128.420387 C155.973116,132.47626 155.213492,134.504197 154.396589,134.504197 C154.396589,134.926968 154.650252,135.561125 155.157577,136.405303 C154.706167,136.405303 154.452504,137.039459 154.396589,138.307772 L154.396589,139.067396 L154.777083,139.828384 L154.016095,139.828384 C154.016095,143.490125 153.50877,146.277686 152.495484,148.195157 L152.874614,148.195157 C152.593676,150.476756 152.340013,151.870537 152.113626,152.376498 C152.509121,154.010303 153.649239,155.657746 155.536707,157.320191 C155.79037,157.320191 155.917201,157.193359 155.917201,156.94106 L156.297695,156.94106 C157.564644,158.123455 159.593944,158.884443 162.382869,159.22266 L162.382869,158.840802 C164.380802,158.081178 165.649115,157.320191 166.18508,156.559203 C171.762929,153.432062 174.551853,150.51767 174.551853,147.813299 L174.551853,147.432806 C174.043164,146.785011 173.790865,146.277686 173.790865,145.912194 L173.028514,145.912194 C173.028514,147.292336 171.001941,148.432454 166.944704,149.335275 C166.944704,149.081612 166.819236,148.954781 166.56421,148.954781 C166.56421,150.22173 165.424092,150.855886 163.142493,150.855886 C163.142493,150.602224 163.017025,150.476756 162.761999,150.476756 C162.987022,149.968067 163.242048,148.574287 163.522986,146.292688 C163.269324,146.292688 163.142493,146.165856 163.142493,145.912194 L163.522986,145.912194 C164.28261,140.335709 165.424092,137.546784 166.944704,137.546784 L167.705691,137.925914 C167.959354,137.419953 168.086185,137.039459 168.086185,136.785797 L176.072465,133.364079 C176.072465,133.616378 176.199296,133.74321 176.451595,133.74321 L176.832089,133.74321 L176.832089,133.364079 C178.354064,132.095767 179.367351,131.46161 179.874676,131.46161 L179.874676,131.08248 C179.874676,130.490601 179.747844,129.983276 179.494182,129.561868 C179.494182,129.306842 177.466245,128.927712 173.410372,128.420387 L169.226303,129.561868 C169.226303,129.306842 169.099472,129.180011 168.847173,129.180011 C168.395763,129.180011 168.1421,129.433673 168.086185,129.940999 L167.326561,129.561868 L167.705691,126.138788 C173.028514,124.618176 177.212582,123.096201 180.25517,121.574225 L182.156275,121.954719 C182.156275,121.308289 182.6636,120.927795 183.676887,120.814601 C183.754622,120.814601 183.826902,120.798236 183.900546,120.785962 C184.079201,121.049171 184.25922,121.609683 184.437874,122.504321 L183.676887,122.884815 C183.676887,123.42078 183.803718,123.928105 184.05738,124.405427 C183.775079,127.730316 183.394585,129.758252 182.915899,130.490601 L183.296393,131.251588 L182.915899,132.011212 L183.296393,132.011212 C182.535405,136.067086 182.156275,138.47688 182.156275,139.236504 C182.408574,139.236504 182.535405,139.363336 182.535405,139.616998 L182.156275,140.376622 L182.535405,141.13761 C182.168549,141.13761 181.91625,142.786416 181.774417,146.081302 C181.774417,146.334965 181.395287,146.588627 180.6343,146.840926 C181.029795,148.306987 181.410289,149.447105 181.774417,150.264007 C181.774417,150.51767 181.64895,150.898163 181.395287,151.405489 C181.64895,151.405489 183.676887,153.052932 187.479098,156.349181 L188.240085,156.349181 C188.240085,155.588193 188.74741,154.955401 189.760697,154.448076 C189.760697,154.194413 189.633866,153.813919 189.381567,153.306594 C189.381567,150.292646 189.888892,147.884216 190.902178,146.081302 C190.619877,146.081302 190.366214,145.575341 190.141191,144.560691 L190.902178,143.038715 L190.521685,142.279091 L191.282672,141.13761 L191.282672,139.236504 L193.943402,139.236504 C194.760304,142.025429 195.267629,143.420573 195.464013,143.420573 C195.464013,146.208134 196.605495,150.011708 198.887094,154.827206 C198.887094,158.319839 199.648082,160.981932 201.168694,162.813485 C201.168694,165.601046 202.689305,167.884009 205.733256,169.658283 L206.112386,169.658283 C207.127036,169.178234 207.632998,168.291778 207.632998,166.99619 L207.632998,165.475578 L207.253868,163.574473 C207.50753,163.574473 207.632998,163.319447 207.632998,162.813485 C207.632998,162.563914 207.593448,162.308888 207.533442,162.052498 L208.647648,162.052498 L209.408636,161.672004 C209.408636,161.925666 209.536831,162.052498 209.78913,162.052498 L210.169623,162.052498 L210.930611,161.672004 C210.930611,161.925666 211.057442,162.052498 211.311105,162.052498 L212.070729,161.672004 L212.070729,162.052498 L212.831717,161.672004 L213.591341,162.052498 L213.591341,161.672004 C215.113316,160.516884 215.87294,159.755897 215.87294,159.391768 L217.775409,159.391768 C220.789357,157.474297 222.563631,155.953686 223.098232,154.827206 C225.634857,152.574246 226.901806,151.305933 226.901806,151.024995 C228.931107,149.616213 229.944394,148.601563 229.944394,147.982408 C230.747658,147.307338 231.426819,146.614539 231.985968,145.902647 C231.890504,146.517711 231.795039,147.13823 231.717304,147.813299 C231.970966,147.813299 232.099162,147.940131 232.099162,148.195157 C231.844135,148.616564 231.717304,149.122526 231.717304,149.715769 C232.733318,151.742342 233.998903,152.883823 235.520879,153.137486 C236.280503,154.179412 237.295153,155.192698 238.563466,156.180073 C239.830415,156.545565 240.464571,156.926059 240.464571,157.320191 L242.365677,156.94106 L247.309369,154.659461 C247.309369,154.404435 247.182538,154.278967 246.928875,154.278967 L246.928875,153.51798 L247.309369,153.51798 L247.309369,154.278967 L247.688499,154.278967 C248.195824,154.278967 248.449487,153.771642 248.449487,152.756992 C248.704513,152.756992 248.829981,152.883823 248.829981,153.137486 C250.098294,152.124199 250.859281,151.61551 251.11158,151.61551 L251.872568,151.997368 C252.12623,151.997368 252.253062,151.490043 252.253062,150.476756 L253.393179,150.476756 C253.648206,150.476756 253.773673,150.602224 253.773673,150.855886 C255.802974,152.124199 256.81626,153.137486 256.81626,153.89711 L259.478354,153.89711 C259.478354,153.644811 259.351522,153.264317 259.09786,152.756992 Z M150.562641,132.041905 L153.730695,125.195743 L153.309288,125.195743 L155.125839,122.027689 L154.660791,121.098956 C155.110838,120.478438 155.562248,120.16886 156.012295,120.16886 C156.774646,114.083686 157.393801,111.042463 157.871123,111.042463 C158.182064,108.280814 158.943052,105.239591 160.154086,101.914702 L161.041905,102.37975 L161.505589,102.37975 L161.041905,101.493295 L161.041905,100.563199 C161.294204,100.563199 161.759252,100.409092 162.435685,100.098151 C161.955636,99.1980576 161.491952,98.7466474 161.041905,98.7466474 L161.505589,97.8165513 L161.505589,97.3515033 C161.505589,96.5918793 160.294555,96.1418328 157.871123,96 C157.307883,96 156.548259,96.3109412 155.590887,96.9300961 L154.660791,96.465048 C153.985722,97.3665048 153.534311,97.8165513 153.309288,97.8165513 C150.941771,102.690691 149.562992,105.126397 149.16886,105.126397 C149.16886,105.408699 149.322967,105.860109 149.632545,106.479264 C148.140572,112.393966 146.929538,116.507118 145.999442,118.817357 L146.46449,119.744726 L145.999442,119.744726 L139.619692,134.788552 L140.041099,135.717285 C139.139642,136.392354 138.689596,137.153342 138.689596,137.998884 L138.224548,137.998884 L136.873045,137.070152 L138.224548,130.689038 C137.914971,130.127162 137.7595,129.520281 137.7595,128.872487 L137.7595,124.309288 L137.338093,123.379192 L137.7595,123.379192 C137.7595,123.040975 137.619031,122.590929 137.338093,122.027689 C137.338093,121.32398 137.477198,120.704825 137.7595,120.16886 C137.7595,119.857919 137.619031,119.407873 137.338093,118.817357 C137.338093,113.858663 135.816117,110.81744 132.77353,109.689596 L130.491931,110.154644 L128.210332,109.689596 C128.210332,110.139642 127.139766,111.211571 125,112.901291 L125,113.322699 C126.295588,113.322699 127.056576,114.704205 127.281599,117.46449 C126.970658,117.46449 126.816551,117.604959 126.816551,117.887261 L126.816551,118.817357 L127.281599,119.744726 C126.970658,119.744726 126.662444,120.196136 126.351503,121.098956 L126.816551,122.027689 L126.351503,126.125839 C126.351503,126.408141 126.50561,126.858188 126.816551,127.477343 C126.50561,127.477343 126.351503,127.634177 126.351503,127.942391 L126.351503,132.506953 L126.816551,134.788552 L125.930096,135.252237 L126.351503,136.140056 L126.351503,137.998884 L125.930096,143.448538 C126.211034,143.448538 126.351503,143.605372 126.351503,143.913586 C126.070565,143.913586 125.930096,144.069057 125.930096,144.378634 L125.930096,147.548052 L126.351503,149.829652 C126.070565,149.829652 125.930096,150.2947 125.930096,151.223432 L126.351503,152.111251 C126.070565,152.111251 125.930096,152.265358 125.930096,152.576299 L126.351503,153.505031 L125.930096,153.505031 C126.437421,155.027007 127.337514,155.786631 128.633103,155.786631 C129.816861,157.645459 131.802521,159.617481 134.591445,161.702696 C135.23924,161.702696 137.365368,159.730675 140.971195,155.786631 C144.012419,147.223473 146.139911,142.506168 147.352309,141.631987 L146.887261,140.703254 C148.096931,138.900341 148.857919,137.998884 149.16886,137.998884 C149.16886,137.689307 149.027028,137.533836 148.746089,137.533836 C148.746089,136.830127 149.196136,135.463622 150.097593,133.435685 L149.632545,132.506953 C149.632545,132.196012 149.942122,132.041905 150.562641,132.041905 Z M290,141.015889 L289.239012,139.875771 C287.804319,137.706001 285.649551,136.312221 282.774708,135.693066 L282.015084,136.07356 C282.015084,135.818534 280.874966,135.566235 278.592003,135.311209 C278.592003,135.566235 277.959211,135.818534 276.690898,136.07356 C276.690898,135.59351 276.056741,135.21438 274.789792,134.932078 C274.789792,135.185741 274.662961,135.311209 274.409299,135.311209 L274.028805,135.311209 L273.267817,134.932078 L273.267817,134.551585 L274.028805,134.932078 L274.409299,134.932078 C274.409299,133.918792 275.170286,133.030973 276.690898,132.269985 C276.690898,132.523648 276.817729,132.650479 277.071392,132.650479 C277.071392,132.143154 277.196859,131.890855 277.451886,131.890855 C278.211509,131.410806 278.592003,130.904844 278.592003,130.36888 L280.874966,130.36888 L282.395578,129.227398 C282.395578,128.975099 282.268747,128.846904 282.015084,128.846904 L282.015084,128.467774 L282.774708,128.846904 L283.155202,128.846904 C283.662527,128.846904 283.91619,128.467774 283.91619,127.706787 C285.154499,126.947163 285.915487,126.565305 286.197789,126.565305 L286.197789,126.186175 L285.817295,125.425187 L286.197789,125.425187 C286.197789,122.834011 284.043021,121.059736 279.733485,120.101001 L278.211509,120.861989 L277.451886,120.481495 C276.94456,120.762433 276.690898,121.144291 276.690898,121.621613 C276.437235,121.621613 276.310404,121.496145 276.310404,121.242482 L275.931274,121.242482 C270.943941,124.283706 267.522223,127.579955 265.662031,131.129868 L266.043889,131.890855 C265.790226,131.890855 265.662031,132.016323 265.662031,132.269985 L265.662031,133.030973 C265.662031,133.284636 265.790226,133.411467 266.043889,133.411467 C267.451307,139.241615 269.352412,142.15737 271.747205,142.15737 L272.508193,141.776876 C272.508193,142.284202 273.142349,142.5365 274.409299,142.5365 L275.170286,142.15737 L275.170286,142.5365 C275.762166,142.059178 277.029115,141.678685 278.972497,141.396383 C278.972497,141.650045 279.099328,141.776876 279.351627,141.776876 L279.351627,142.15737 C279.351627,143.931645 277.071392,146.720569 272.508193,150.524144 C269.465606,152.494802 267.944994,153.63492 267.944994,153.944497 C267.691332,153.944497 267.564501,153.81903 267.564501,153.565367 C265.761587,154.691847 263.606819,155.579666 261.100196,156.22746 L260.339209,155.846966 L259.578221,156.22746 C259.578221,155.973798 259.452753,155.846966 259.197727,155.846966 C258.436739,156.213822 258.057609,156.592952 258.057609,156.988448 L258.057609,157.367578 C258.057609,158.832275 259.831884,160.35425 263.380432,161.930777 L264.902407,161.930777 L265.662031,161.551647 C265.662031,161.803945 265.790226,161.930777 266.043889,161.930777 L266.423019,161.930777 L267.18537,161.551647 C267.18537,161.803945 267.310838,161.930777 267.564501,161.930777 L268.324124,161.551647 L268.324124,161.930777 L269.085112,161.551647 L269.8461,161.930777 L269.8461,161.551647 C271.366711,160.395163 272.127699,159.634176 272.127699,159.270047 L274.028805,159.270047 C277.042752,157.352576 278.817027,155.831965 279.351627,154.705485 C281.888253,152.452525 283.155202,151.184212 283.155202,150.903274 C285.184503,149.494492 286.197789,148.481205 286.197789,147.862051 C288.31028,146.086413 289.577229,144.185307 290,142.15737 L289.62087,141.396383 C289.873169,141.396383 290,141.270915 290,141.015889 Z" id="Logo"></path>
        </g>
    </g>
</svg>